<svg width="24" height="21" viewBox="0 0 24 21" fill="none" xmlns="http://www.w3.org/2000/svg">
<g opacity=".5">
<circle cx="12.1765" cy="10.5882" r="9" stroke="#C4C4C4" stroke-width="2"/>
<path fill-rule="evenodd" clip-rule="evenodd" d="M11.5882 2.94118C11.2634 2.94118 11 3.20454 11 3.52941V11.1765C11 11.2654 11.0197 11.3498 11.0551 11.4253C11.0197 11.5009 11 11.5853 11 11.6742C11 11.9991 11.2634 12.2624 11.5882 12.2624L16.2941 12.2624C16.619 12.2624 16.8824 11.9991 16.8824 11.6742C16.8824 11.3493 16.619 11.086 16.2941 11.086H12.1765V3.52941C12.1765 3.20454 11.9131 2.94118 11.5882 2.94118Z" fill="#C4C4C4"/>
<rect y="4.17073" width="5.8983" height="1.76471" rx="0.882353" transform="rotate(-45 0 4.17073)" fill="#C4C4C4"/>
<rect width="5.8983" height="1.76471" rx="0.882353" transform="matrix(-0.707107 -0.707107 -0.707107 0.707107 23.8372 4.17073)" fill="#C4C4C4"/>
</g>
</svg>
