<svg width="21" height="23" viewBox="0 0 21 23" fill="none" xmlns="http://www.w3.org/2000/svg">
<g opacity="0.5">
<circle cx="10.8372" cy="12.5882" r="9" stroke="#C4C4C4" stroke-width="2"/>
<path fill-rule="evenodd" clip-rule="evenodd" d="M10.2489 4.94116C9.92401 4.94116 9.66065 5.20452 9.66065 5.5294V13.1765C9.66065 13.2654 9.68039 13.3497 9.71573 13.4253C9.68039 13.5009 9.66064 13.5852 9.66064 13.6742C9.66064 13.9991 9.92401 14.2624 10.2489 14.2624L14.9548 14.2624C15.2796 14.2624 15.543 13.9991 15.543 13.6742C15.543 13.3493 15.2796 13.086 14.9548 13.086H10.8371V5.5294C10.8371 5.20452 10.5738 4.94116 10.2489 4.94116Z" fill="#C4C4C4"/>
<rect x="7.66064" width="5.8983" height="1.76471" rx="0.882353" fill="#C4C4C4"/>
<rect x="8.66064" y="1" width="4" height="3" fill="#C4C4C4"/>
<rect width="2.36938" height="1.76471" rx="0.882353" transform="matrix(-0.707107 -0.707107 -0.707107 0.707107 19.5839 3.6754)" fill="#C4C4C4"/>
<rect width="1.41609" height="3.70993" rx="0.708045" transform="matrix(-0.707107 -0.707107 -0.707107 0.707107 18.9346 3.65062)" fill="#C4C4C4"/>
</g>
</svg>
