<svg width="21" height="23" viewBox="0 0 21 23" fill="none" xmlns="http://www.w3.org/2000/svg">
<g opacity="0.5">
<circle r="9" transform="matrix(-1 0 0 1 10.8372 12.5882)" stroke="#C4C4C4" stroke-width="2"/>
<path fill-rule="evenodd" clip-rule="evenodd" d="M11.8357 6.0521C11.5509 6.01223 11.3082 6.24232 11.3082 6.52984V12.2624C11.3082 12.5385 11.0843 12.7624 10.8082 12.7624H4.94604C4.66196 12.7624 4.43308 12.9996 4.4671 13.2816C4.85566 16.5033 7.59901 19 10.9255 19C14.5184 19 17.431 16.0874 17.431 12.4945C17.431 9.21045 14.9977 6.49477 11.8357 6.0521Z" fill="#C4C4C4"/>
<rect width="5.8983" height="1.76471" rx="0.882353" transform="matrix(-1 0 0 1 14.0137 0)" fill="#C4C4C4"/>
<rect width="4" height="3" transform="matrix(-1 0 0 1 13.0137 1)" fill="#C4C4C4"/>
<rect x="2.09045" y="3.6754" width="2.36938" height="1.76471" rx="0.882353" transform="rotate(-45 2.09045 3.6754)" fill="#C4C4C4"/>
<rect x="2.73975" y="3.65062" width="1.41609" height="3.70993" rx="0.708045" transform="rotate(-45 2.73975 3.65062)" fill="#C4C4C4"/>
</g>
</svg>
