<svg width="21" height="20" viewBox="0 0 21 20" fill="none" xmlns="http://www.w3.org/2000/svg">
<circle cx="10.8372" cy="10" r="9" stroke="#88B0FF" stroke-width="2"/>
<path d="M9.33716 4C8.93716 3.2 8.17049 2.66667 7.83716 2.5L4.33716 4L3.83716 5.5C4.17049 6 4.83716 5.6 4.83716 6C4.83716 6.5 4.83716 6.5 5.33716 7C5.83716 7.5 6.83716 7.5 7.33716 7.5C7.83716 7.5 9.33716 8 9.33716 7.5C9.33716 7 9.83716 6.5 9.83716 6C9.83716 5.5 9.83716 5 9.33716 4Z" fill="#88B0FF"/>
<path d="M15.3372 7C15.7372 7.4 17.1705 6.5 17.8372 6L19.3372 8.5V12C18.8372 12.8333 17.8372 14.3 17.8372 13.5C17.8372 12.5 16.8372 13 16.3372 13C15.8372 13 15.8372 14 15.3372 13.5C14.8372 13 14.3372 12.5 13.8372 11C13.3372 9.5 12.8372 11 12.3372 10C11.8372 9 14.3372 9 14.3372 7.5C14.3372 6 14.8372 6.5 15.3372 7Z" fill="#88B0FF"/>
<path d="M12.3372 16C12.3372 15.5 12.3372 15 10.8372 14C10.1705 14.1667 8.73716 14.4 8.33716 14C7.83716 13.5 5.83716 15 4.83716 15C3.83716 15 6.33716 16.5 6.83716 17.5C7.33716 18.5 9.33716 18 9.83716 18.5C10.3372 19 12.3372 16.5 12.3372 16Z" fill="#88B0FF"/>
</svg>
